<?xml version="1.0" standalone="no"?>
<!DOCTYPE svg PUBLIC "-//W3C//DTD SVG 20010904//EN"
 "http://www.w3.org/TR/2001/REC-SVG-20010904/DTD/svg10.dtd">
<svg version="1.0" xmlns="http://www.w3.org/2000/svg"
 width="215.000000pt" height="215.000000pt" viewBox="0 0 215.000000 215.000000"
 preserveAspectRatio="xMidYMid meet">
<metadata>
Created by potrace 1.14, written by Peter Selinger 2001-2017
</metadata>
<g transform="translate(0.000000,215.000000) scale(0.100000,-0.100000)"
fill="#000000" stroke="none">
<path d="M805 2094 c-100 -27 -162 -57 -251 -125 -167 -126 -263 -270 -324
-484 -59 -207 -81 -269 -153 -425 -52 -114 -60 -150 -61 -260 0 -92 4 -116 31
-190 44 -123 67 -168 118 -230 25 -30 47 -64 50 -75 3 -15 14 -210 15 -257 0
-5 389 -8 865 -8 834 0 865 1 874 19 6 10 7 21 4 25 -4 4 -5 48 -3 99 2 51 4
109 4 130 1 31 10 48 45 85 54 57 104 134 121 186 8 26 11 74 7 150 -6 137
-33 228 -122 411 -34 72 -84 193 -110 270 -85 252 -153 375 -280 500 -48 47
-97 84 -152 113 -46 24 -85 43 -88 43 -3 -1 -6 -1 -7 0 -57 17 -139 13 -205
-10 -79 -27 -80 -27 -145 6 -42 21 -69 27 -133 29 -44 2 -89 0 -100 -2z"/>
</g>
</svg>
